<svg id="Layer_1" data-name="Layer 1" xmlns="http://www.w3.org/2000/svg" viewBox="0 0 200 200"><defs><style>.cls-1{fill:#fff;}.cls-2{fill:#178841;}</style></defs><path class="cls-1" d="M100.21,191a91,91,0,1,0-91-91,91,91,0,0,0,91,91"/><path class="cls-2" d="M100.21,191v6.88A97.89,97.89,0,1,0,31,169.24a97.64,97.64,0,0,0,69.22,28.67V184.14a84.13,84.13,0,1,1,59.48-24.64,83.8,83.8,0,0,1-59.48,24.64Z"/><path d="M144.44,117.37a1.68,1.68,0,0,0,1.66-1.66v-7.87a1.66,1.66,0,0,0-1.66-1.52h-17l4.83-3.73C138.23,98,145.14,92,145.14,83.94c0-9.81-8-15.74-17.83-15.74-10.77,0-17.53,7-19.06,13.53a2.08,2.08,0,0,0,1.38,2.63l6.64,2.9c1.51.69,2.62-.28,3.31-2.21s3-5.39,6.91-5.39c3,0,5.66,2.21,5.66,5.11,0,3.73-3.18,6.36-8.29,10.64l-12.57,10.77a3.38,3.38,0,0,0-1.24,2.76v6.77a1.79,1.79,0,0,0,1.66,1.66Zm-88.81-54a1.92,1.92,0,0,0,1.66,1.8H63.5V95.54a1.93,1.93,0,0,0,1.66,1.8h9a1.74,1.74,0,0,0,1.79-1.8V50.65A1.71,1.71,0,0,0,74.14,49H68.61a2.91,2.91,0,0,0-2.76,1.52c-1.24,2.48-3.32,4.42-7.46,4.42h-1c-1.1,0-1.79.55-1.79,1.93Zm24.17,54c2.9,0,3.59-1.11,4.15-2.62L114.06,53c.82-1.79.27-4-3.18-4H108c-2.9,0-3.59,1.1-4.15,2.62L73.72,113.36c-.83,1.8-.27,4,3.18,4Z"/><path d="M139,138h-6.93a3.74,3.74,0,0,1,3.48-2.54A3.53,3.53,0,0,1,139,138m-3.48-8.15a10.64,10.64,0,0,0-10.91,10.9c0,5.9,4.39,10.61,10.91,10.61,4.54,0,7.58-1.76,9.17-4a.89.89,0,0,0-.16-1.28l-4.18-2.54a.82.82,0,0,0-1.11.25,4.51,4.51,0,0,1-3.6,1.56,3.66,3.66,0,0,1-3.73-3.08h12.91c.94,0,1.15-.49,1.15-1.06V140a10.13,10.13,0,0,0-10.45-10.12m-11.84,17a1.44,1.44,0,0,0-.53-1.84l-3.08-2.3a1.34,1.34,0,0,0-1.92.37,4.32,4.32,0,0,1-3.57,1.72,4.16,4.16,0,0,1,0-8.32,4.35,4.35,0,0,1,3.57,1.72,1.33,1.33,0,0,0,1.92.37l3.08-2.29a1.44,1.44,0,0,0,.53-1.84,10.76,10.76,0,1,0,0,12.41m-23.26,3.94a1,1,0,0,0,1-1V131.41a.93.93,0,0,0-1-.94H95.25a1,1,0,0,0-1,.94v18.36a1,1,0,0,0,1,1Zm-2.58-21.64a4.06,4.06,0,1,0-4.06-4.06,4.1,4.1,0,0,0,4.06,4.06m-6.7,1a5.3,5.3,0,0,0-4.47,2.38v-1.15a1,1,0,0,0-1-.86H80.8a.93.93,0,0,0-.94.94v18.4a.93.93,0,0,0,.94.95H86a1,1,0,0,0,1-.87v-8.8c0-2.34,1-3.45,3.36-3.45H91.5a1.17,1.17,0,0,0,1.27-1.27v-5c0-1.07-.66-1.23-1.11-1.23Zm-20.4,1.72a3.27,3.27,0,0,1-3.36,3.36H63V128.5h4.42a3.22,3.22,0,0,1,3.36,3.32m-2.09,9.8c6,0,9.67-4.43,9.8-9.76a9.49,9.49,0,0,0-9.8-9.79h-12a1,1,0,0,0-1,1v26.72a1,1,0,0,0,1,1H62a1,1,0,0,0,1-1v-8.15Z"/></svg>